{
	"asset":{
		"generator":"Khronos glTF Blender I/O v4.1.62",
		"version":"2.0"
	},
	"scene":0,
	"scenes":[
		{
			"name":"Scene",
			"nodes":[
				0
			]
		}
	],
	"nodes":[
		{
			"mesh":0,
			"name":"Classic Robot V12"
		}
	],
	"materials":[
		{
			"doubleSided":true,
			"name":"Material.001",
			"pbrMetallicRoughness":{
				"baseColorFactor":[
					0.39186280965805054,
					0.32213062047958374,
					0.2723125219345093,
					1
				],
				"metallicFactor":0.7716535329818726,
				"roughnessFactor":0.10629922151565552
			}
		}
	],
	"meshes":[
		{
			"name":"Classic Robot V12",
			"primitives":[
				{
					"attributes":{
						"POSITION":0,
						"NORMAL":1
					},
					"indices":2,
					"material":0
				}
			]
		}
	],
	"accessors":[
		{
			"bufferView":0,
			"componentType":5126,
			"count":94474,
			"max":[
				0.8262391686439514,
				2.9290456771850586,
				0.9535889029502869
			],
			"min":[
				-0.8262391686439514,
				0.01977550983428955,
				-0.518629789352417
			],
			"type":"VEC3"
		},
		{
			"bufferView":1,
			"componentType":5126,
			"count":94474,
			"type":"VEC3"
		},
		{
			"bufferView":2,
			"componentType":5125,
			"count":123312,
			"type":"SCALAR"
		}
	],
	"bufferViews":[
		{
			"buffer":0,
			"byteLength":1133688,
			"byteOffset":0,
			"target":34962
		},
		{
			"buffer":0,
			"byteLength":1133688,
			"byteOffset":1133688,
			"target":34962
		},
		{
			"buffer":0,
			"byteLength":493248,
			"byteOffset":2267376,
			"target":34963
		}
	],
	"buffers":[
		{
			"byteLength":2760624,
			"uri":"robot.bin"
		}
	]
}
